<svg id="visual" viewBox="0 0 900 675" width="900" height="675" xmlns="http://www.w3.org/2000/svg" xmlns:xlink="http://www.w3.org/1999/xlink" version="1.1"><rect x="0" y="0" width="900" height="675" fill="#b8e5f1"></rect><path d="M0 445L129 358L257 444L386 418L514 385L643 328L771 432L900 370L900 676L771 676L643 676L514 676L386 676L257 676L129 676L0 676Z" fill="#d7f9ec"></path><path d="M0 473L129 486L257 385L386 373L514 406L643 486L771 484L900 389L900 676L771 676L643 676L514 676L386 676L257 676L129 676L0 676Z" fill="#afedcf"></path><path d="M0 423L129 467L257 481L386 494L514 455L643 471L771 467L900 454L900 676L771 676L643 676L514 676L386 676L257 676L129 676L0 676Z" fill="#8bdfad"></path><path d="M0 486L129 548L257 480L386 497L514 570L643 515L771 488L900 492L900 676L771 676L643 676L514 676L386 676L257 676L129 676L0 676Z" fill="#6dd086"></path><path d="M0 553L129 549L257 593L386 539L514 597L643 577L771 597L900 566L900 676L771 676L643 676L514 676L386 676L257 676L129 676L0 676Z" fill="#55c05b"></path><path d="M0 612L129 635L257 644L386 643L514 589L643 585L771 595L900 630L900 676L771 676L643 676L514 676L386 676L257 676L129 676L0 676Z" fill="#42af24"></path></svg>