<svg id="visual" viewBox="0 0 900 600" width="900" height="600" xmlns="http://www.w3.org/2000/svg" xmlns:xlink="http://www.w3.org/1999/xlink" version="1.1"><path d="M0 178L129 244L257 217L386 196L514 197L643 209L771 234L900 226L900 0L771 0L643 0L514 0L386 0L257 0L129 0L0 0Z" fill="#7cd700"></path><path d="M0 119L129 175L257 184L386 180L514 153L643 132L771 187L900 178L900 0L771 0L643 0L514 0L386 0L257 0L129 0L0 0Z" fill="#6dcd11"></path><path d="M0 140L129 158L257 87L386 104L514 113L643 141L771 153L900 89L900 0L771 0L643 0L514 0L386 0L257 0L129 0L0 0Z" fill="#5fc31a"></path><path d="M0 72L129 115L257 110L386 64L514 63L643 103L771 85L900 62L900 0L771 0L643 0L514 0L386 0L257 0L129 0L0 0Z" fill="#50b920"></path><path d="M0 71L129 27L257 29L386 33L514 49L643 40L771 27L900 31L900 0L771 0L643 0L514 0L386 0L257 0L129 0L0 0Z" fill="#42af24"></path></svg>